<svg width="16" height="16" viewBox="0 0 16 16" fill="none" xmlns="http://www.w3.org/2000/svg">
<path fill-rule="evenodd" clip-rule="evenodd" d="M8 1.33334C4.3181 1.33334 1.33334 4.31811 1.33334 8.00001C1.33334 11.6819 4.3181 14.6667 8 14.6667C11.6819 14.6667 14.6667 11.6819 14.6667 8.00001C14.6667 4.31811 11.6819 1.33334 8 1.33334ZM8 2.66668C10.9455 2.66668 13.3333 5.05449 13.3333 8.00001C13.3333 10.9455 10.9455 13.3333 8 13.3333C5.05448 13.3333 2.66667 10.9455 2.66667 8.00001C2.66667 5.05449 5.05448 2.66668 8 2.66668ZM8.66218 4.58893C8.62367 4.25737 8.34189 4.00001 8 4.00001C7.63181 4.00001 7.33334 4.29849 7.33334 4.66668V8.00001L7.33912 8.08764C7.35827 8.23211 7.42441 8.36723 7.5286 8.47141L9.5286 10.4714L9.5914 10.5269C9.85293 10.7302 10.2311 10.7117 10.4714 10.4714L10.5269 10.4086C10.7302 10.1471 10.7117 9.76893 10.4714 9.52861L8.66667 7.72334V4.66668L8.66218 4.58893Z" fill="#162447"/>
</svg>
